<?xml version="1.0" standalone="no"?>
<!DOCTYPE svg PUBLIC "-//W3C//DTD SVG 20010904//EN"
 "http://www.w3.org/TR/2001/REC-SVG-20010904/DTD/svg10.dtd">
<svg version="1.0" xmlns="http://www.w3.org/2000/svg"
 width="1007.000000pt" height="1007.000000pt" viewBox="0 0 1007.000000 1007.000000"
 preserveAspectRatio="xMidYMid meet">
<metadata>
Created by potrace 1.16, written by Peter Selinger 2001-2019
</metadata>
<g transform="translate(0.000000,1007.000000) scale(0.100000,-0.100000)"
fill="#000000" stroke="none">
<path d="M3200 8784 c-712 -97 -1335 -486 -1730 -1081 -393 -592 -508 -1327
-316 -2023 156 -566 514 -1056 1019 -1393 118 -79 358 -199 501 -252 126 -47
331 -99 476 -122 163 -26 577 -26 740 0 389 62 778 221 1072 439 l81 60 303
-303 304 -304 -114 -115 c-63 -63 -119 -125 -125 -137 -6 -12 -11 -41 -11 -65
l0 -43 1143 -1143 c628 -629 1156 -1151 1172 -1160 38 -20 121 -20 160 1 44
23 842 827 855 860 20 54 12 119 -19 168 -16 24 -534 549 -1152 1166 -906 903
-1130 1122 -1156 1128 -68 14 -90 0 -251 -158 l-153 -151 -299 299 -299 300
51 65 c275 350 444 755 510 1225 19 136 16 504 -5 645 -170 1115 -1019 1949
-2130 2095 -148 19 -481 18 -627 -1z m708 -508 c651 -138 1182 -577 1432
-1184 55 -133 99 -290 127 -447 24 -139 24 -461 0 -600 -73 -419 -246 -767
-532 -1064 -320 -332 -736 -537 -1200 -592 -157 -18 -442 -6 -593 25 -384 81
-703 247 -979 510 -422 402 -652 994 -605 1561 39 473 225 890 547 1224 305
317 697 519 1138 586 65 10 158 13 317 10 195 -3 241 -7 348 -29z"/>
</g>
</svg>
