<?xml version="1.0" standalone="no"?>
<!DOCTYPE svg PUBLIC "-//W3C//DTD SVG 20010904//EN"
 "http://www.w3.org/TR/2001/REC-SVG-20010904/DTD/svg10.dtd">
<svg version="1.0" xmlns="http://www.w3.org/2000/svg"
 width="605.000000pt" height="462.000000pt" viewBox="0 0 605.000000 462.000000"
 preserveAspectRatio="xMidYMid meet">
<metadata>
Created by potrace 1.16, written by Peter Selinger 2001-2019
</metadata>
<g transform="translate(0.000000,462.000000) scale(0.100000,-0.100000)"
fill="#000000" stroke="none">
<path d="M2237 4116 c-18 -19 -20 -39 -57 -646 -11 -179 -29 -464 -40 -635
-25 -380 -99 -1582 -102 -1648 -1 -27 -5 -50 -8 -52 -7 -5 -64 109 -61 121 2
4 -2 10 -7 13 -5 3 -20 26 -32 51 -12 25 -28 48 -34 52 -6 4 -141 8 -301 8
l-290 1 -40 56 c-44 60 -123 137 -189 182 -131 88 -247 82 -455 -24 -102 -53
-164 -88 -171 -96 -3 -3 -41 -32 -85 -63 -71 -50 -85 -56 -130 -56 -71 0 -94
-9 -101 -36 -11 -44 9 -54 112 -54 52 0 94 4 94 8 0 16 276 191 373 237 214
102 295 69 529 -218 l23 -28 287 1 288 0 74 -149 c41 -82 72 -152 68 -156 -4
-5 -2 -6 3 -2 6 3 16 -7 23 -22 19 -44 49 -70 72 -64 11 3 23 9 26 14 8 14 19
174 84 1224 33 545 63 1015 67 1045 4 37 15 -102 34 -430 92 -1629 120 -2148
117 -2176 -2 -18 3 -36 12 -46 15 -15 71 -48 58 -33 -4 4 0 14 9 20 11 9 47
132 112 391 l96 379 387 5 387 5 93 105 c207 234 386 380 465 380 81 0 186
-123 303 -355 l65 -130 161 -3 161 -2 144 96 c178 120 327 194 407 201 70 6
114 -10 186 -69 54 -45 167 -167 175 -189 11 -34 30 -39 139 -39 61 0 117 3
126 6 19 7 21 55 4 72 -7 7 -46 12 -103 12 l-90 1 -40 56 c-68 95 -185 192
-273 226 -137 54 -333 -18 -642 -237 l-65 -46 -115 0 -115 0 -47 98 c-80 167
-162 280 -258 353 -41 31 -50 34 -115 34 -57 0 -81 -5 -122 -27 -110 -57 -240
-170 -398 -348 l-98 -110 -361 -1 c-199 0 -379 -3 -401 -7 l-39 -7 -60 -242
c-33 -133 -61 -241 -63 -239 -2 1 -14 203 -28 447 -13 244 -29 523 -35 619 -6
96 -33 585 -60 1085 -58 1069 -58 1061 -77 1080 -18 19 -38 19 -56 1z"/>
</g>
</svg>
