<?xml version="1.0" standalone="no"?>
<!DOCTYPE svg PUBLIC "-//W3C//DTD SVG 20010904//EN"
 "http://www.w3.org/TR/2001/REC-SVG-20010904/DTD/svg10.dtd">
<svg version="1.0" xmlns="http://www.w3.org/2000/svg"
 width="512.000000pt" height="512.000000pt" viewBox="0 0 512.000000 512.000000"
 preserveAspectRatio="xMidYMid meet">
<metadata>
Created by potrace 1.16, written by Peter Selinger 2001-2019
</metadata>
<g transform="translate(0.000000,512.000000) scale(0.100000,-0.100000)"
fill="#000000" stroke="none">
<path d="M2695 5088 c-26 -25 -199 -365 -740 -1453 -388 -781 -708 -1437 -711
-1457 -8 -49 26 -120 70 -148 32 -19 48 -20 560 -20 325 0 526 -4 526 -9 0 -6
-47 -430 -105 -944 -117 -1038 -115 -988 -46 -1034 25 -17 48 -23 88 -23 47 0
58 4 87 33 26 24 214 385 728 1396 381 750 701 1384 711 1409 24 61 15 106
-28 149 l-33 33 -549 0 -549 0 113 973 c69 595 110 988 106 1012 -4 28 -17 51
-43 77 -35 35 -42 38 -94 38 -50 0 -60 -4 -91 -32z"/>
<path d="M2115 4786 c-281 -58 -526 -154 -754 -298 -569 -358 -946 -930 -1047
-1588 -22 -139 -29 -439 -15 -568 92 -806 561 -1474 1276 -1818 141 -68 364
-149 375 -137 4 5 19 125 34 268 15 143 28 266 29 273 1 8 -23 23 -59 37 -707
268 -1164 984 -1104 1732 50 614 413 1147 965 1415 l107 52 159 318 c87 175
159 322 159 328 0 12 8 13 -125 -14z"/>
<path d="M3165 4727 c-4 -18 -51 -438 -58 -515 -2 -20 10 -28 88 -60 256 -107
473 -259 647 -457 750 -850 494 -2153 -523 -2673 l-113 -57 -164 -323 c-90
-178 -162 -325 -159 -328 8 -8 198 32 314 65 414 119 799 367 1081 696 287
334 474 748 533 1180 21 148 18 502 -4 640 -129 815 -658 1478 -1417 1778 -63
25 -139 52 -167 61 -52 15 -53 15 -58 -7z"/>
</g>
</svg>
