<?xml version="1.0" standalone="no"?>
<!DOCTYPE svg PUBLIC "-//W3C//DTD SVG 20010904//EN"
 "http://www.w3.org/TR/2001/REC-SVG-20010904/DTD/svg10.dtd">
<svg version="1.0" xmlns="http://www.w3.org/2000/svg"
 width="1024.000000pt" height="1024.000000pt" viewBox="0 0 1024.000000 1024.000000"
 preserveAspectRatio="xMidYMid meet">
<metadata>
Created by potrace 1.16, written by Peter Selinger 2001-2019
</metadata>
<g transform="translate(0.000000,1024.000000) scale(0.100000,-0.100000)"
fill="#000000" stroke="none">
<path d="M8145 9330 c-16 -5 -734 -169 -1595 -365 -2418 -550 -2702 -615
-2750 -636 -55 -25 -86 -52 -113 -104 l-22 -40 -3 -2707 c-1 -1490 -6 -2708
-10 -2708 -4 0 -39 13 -79 29 -302 123 -672 139 -965 41 -321 -108 -555 -327
-651 -610 -31 -93 -32 -98 -31 -275 0 -167 2 -187 27 -268 99 -321 318 -523
650 -599 121 -28 359 -30 492 -5 198 38 413 127 559 231 248 177 402 420 435
686 8 57 11 709 11 1979 0 1408 3 1904 12 1932 14 49 69 114 117 138 20 11
821 206 1781 436 1340 320 1752 415 1780 410 51 -9 96 -38 117 -77 17 -31 18
-110 21 -1512 2 -1188 0 -1477 -10 -1473 -218 96 -407 137 -628 137 -149 0
-233 -11 -360 -47 -510 -142 -810 -564 -736 -1038 59 -381 284 -631 651 -726
120 -31 393 -34 525 -6 483 103 838 397 962 797 l23 75 3 3095 c2 2098 0 3106
-7 3131 -17 57 -52 82 -119 85 -31 2 -70 -1 -87 -6z"/>
</g>
</svg>
