<?xml version="1.0" standalone="no"?>
<!DOCTYPE svg PUBLIC "-//W3C//DTD SVG 20010904//EN"
 "http://www.w3.org/TR/2001/REC-SVG-20010904/DTD/svg10.dtd">
<svg version="1.0" xmlns="http://www.w3.org/2000/svg"
 width="529.000000pt" height="505.000000pt" viewBox="0 0 529.000000 505.000000"
 preserveAspectRatio="xMidYMid meet">
<metadata>
Created by potrace 1.16, written by Peter Selinger 2001-2019
</metadata>
<g transform="translate(0.000000,505.000000) scale(0.100000,-0.100000)"
fill="#000000" stroke="none">
<path d="M492 5025 c-30 -7 -92 -32 -140 -55 -123 -61 -214 -154 -275 -281
-54 -111 -67 -169 -67 -289 0 -120 13 -178 67 -289 63 -131 153 -221 284 -284
111 -54 169 -67 289 -67 120 0 178 13 289 67 131 63 221 153 284 284 54 111
67 169 67 289 0 120 -13 178 -67 289 -63 131 -153 221 -284 284 -52 25 -118
50 -147 56 -70 15 -234 13 -300 -4z m298 -90 c189 -50 345 -206 395 -395 19
-71 19 -209 0 -280 -50 -189 -206 -345 -395 -395 -71 -19 -209 -19 -280 0
-189 50 -345 206 -395 395 -19 71 -19 209 0 280 50 187 205 344 391 395 66 18
216 18 284 0z"/>
<path d="M390 4660 c-13 -13 -20 -33 -20 -60 0 -53 27 -80 80 -80 53 0 80 27
80 80 0 53 -27 80 -80 80 -27 0 -47 -7 -60 -20z"/>
<path d="M790 4660 c-13 -13 -20 -33 -20 -60 0 -53 27 -80 80 -80 53 0 80 27
80 80 0 53 -27 80 -80 80 -27 0 -47 -7 -60 -20z"/>
<path d="M293 4345 c11 -110 88 -217 194 -271 53 -27 67 -29 163 -29 96 0 110
2 163 29 106 54 183 161 194 271 l6 55 -47 0 c-45 0 -46 -1 -46 -32 0 -45 -40
-126 -81 -165 -107 -101 -286 -97 -386 8 -39 42 -72 113 -73 157 0 31 -1 32
-46 32 l-47 0 6 -55z"/>
<path d="M2492 5025 c-30 -7 -92 -32 -140 -55 -123 -61 -214 -154 -275 -281
-54 -111 -67 -169 -67 -289 0 -120 13 -178 67 -289 63 -131 153 -221 284 -284
111 -54 169 -67 289 -67 120 0 178 13 289 67 131 63 221 153 284 284 54 111
67 169 67 289 0 120 -13 178 -67 289 -36 75 -59 108 -118 166 -58 59 -91 82
-166 118 -52 25 -118 50 -147 56 -70 15 -234 13 -300 -4z m298 -90 c92 -24
179 -75 250 -145 70 -71 121 -158 145 -250 19 -71 19 -209 0 -280 -50 -189
-206 -345 -395 -395 -71 -19 -209 -19 -280 0 -189 50 -345 206 -395 395 -19
71 -19 209 0 280 50 187 205 344 391 395 66 18 216 18 284 0z"/>
<path d="M2390 4660 c-13 -13 -20 -33 -20 -60 0 -53 27 -80 80 -80 53 0 80 27
80 80 0 27 -7 47 -20 60 -13 13 -33 20 -60 20 -27 0 -47 -7 -60 -20z"/>
<path d="M2790 4660 c-13 -13 -20 -33 -20 -60 0 -27 7 -47 20 -60 13 -13 33
-20 60 -20 27 0 47 7 60 20 13 13 20 33 20 60 0 27 -7 47 -20 60 -13 13 -33
20 -60 20 -27 0 -47 -7 -60 -20z"/>
<path d="M2535 4427 c-128 -42 -229 -164 -242 -292 l-6 -55 47 0 c45 0 46 1
46 33 0 44 40 125 81 164 52 49 114 73 189 73 75 0 137 -24 189 -73 41 -39 81
-120 81 -164 0 -32 1 -33 46 -33 l47 0 -6 55 c-11 110 -88 217 -194 270 -48
25 -70 30 -147 32 -56 2 -107 -2 -131 -10z"/>
<path d="M4492 5025 c-30 -7 -92 -32 -140 -55 -123 -61 -214 -154 -275 -281
-54 -111 -67 -169 -67 -289 0 -120 13 -178 67 -289 63 -131 153 -221 284 -284
111 -54 169 -67 289 -67 120 0 178 13 289 67 131 63 221 153 284 284 54 111
67 169 67 289 0 120 -13 178 -67 289 -63 131 -153 221 -284 284 -52 25 -118
50 -147 56 -70 15 -234 13 -300 -4z m298 -90 c189 -50 345 -206 395 -395 8
-30 15 -93 15 -140 0 -155 -52 -281 -160 -390 -109 -108 -235 -160 -390 -160
-155 0 -281 52 -390 160 -108 109 -160 235 -160 390 0 47 7 110 15 140 50 187
205 344 391 395 66 18 216 18 284 0z"/>
<path d="M4390 4660 c-13 -13 -20 -33 -20 -60 0 -27 7 -47 20 -60 13 -13 33
-20 60 -20 27 0 47 7 60 20 13 13 20 33 20 60 0 27 -7 47 -20 60 -13 13 -33
20 -60 20 -27 0 -47 -7 -60 -20z"/>
<path d="M4790 4660 c-13 -13 -20 -33 -20 -60 0 -27 7 -47 20 -60 13 -13 33
-20 60 -20 27 0 47 7 60 20 13 13 20 33 20 60 0 27 -7 47 -20 60 -13 13 -33
20 -60 20 -27 0 -47 -7 -60 -20z"/>
<path d="M4370 4240 l0 -40 280 0 280 0 0 40 0 40 -280 0 -280 0 0 -40z"/>
<path d="M492 3145 c-30 -7 -92 -32 -140 -55 -123 -61 -214 -154 -275 -281
-54 -111 -67 -169 -67 -289 0 -120 13 -178 67 -289 63 -131 153 -221 284 -284
111 -54 169 -67 289 -67 120 0 178 13 289 67 131 63 221 153 284 284 54 111
67 169 67 289 0 120 -13 178 -67 289 -63 131 -153 221 -284 284 -52 25 -118
50 -147 56 -70 15 -234 13 -300 -4z m298 -90 c189 -50 345 -206 395 -395 19
-71 19 -209 0 -280 -50 -189 -206 -345 -395 -395 -71 -19 -209 -19 -280 0
-189 50 -345 206 -395 395 -19 71 -19 209 0 280 50 187 205 344 391 395 66 18
216 18 284 0z"/>
<path d="M362 2780 c-39 -24 -72 -75 -72 -112 0 -26 3 -28 43 -28 38 0 44 3
54 30 20 53 106 53 126 0 10 -27 16 -30 54 -30 40 0 43 2 43 28 0 72 -73 132
-160 132 -37 0 -66 -6 -88 -20z"/>
<path d="M762 2780 c-39 -24 -72 -75 -72 -112 0 -26 3 -28 43 -28 38 0 44 3
54 30 20 53 106 53 126 0 10 -27 16 -30 54 -30 40 0 43 2 43 28 0 72 -73 132
-160 132 -37 0 -66 -6 -88 -20z"/>
<path d="M334 2505 c-12 -29 2 -121 25 -167 28 -60 89 -120 149 -150 68 -33
216 -33 284 0 106 52 173 153 173 262 l0 65 -313 3 c-275 2 -313 0 -318 -13z
m540 -87 c-20 -66 -74 -127 -136 -152 -21 -9 -60 -16 -88 -16 -103 0 -193 67
-224 168 l-7 22 231 0 231 0 -7 -22z"/>
<path d="M2492 3145 c-30 -7 -92 -32 -140 -55 -123 -61 -214 -154 -275 -281
-54 -111 -67 -169 -67 -289 0 -120 13 -178 67 -289 63 -131 153 -221 284 -284
111 -54 169 -67 289 -67 120 0 178 13 289 67 131 63 221 153 284 284 54 111
67 169 67 289 0 120 -13 178 -67 289 -36 75 -59 108 -118 166 -58 59 -91 82
-166 118 -52 25 -118 50 -147 56 -70 15 -234 13 -300 -4z m298 -90 c92 -24
179 -75 250 -145 70 -71 121 -158 145 -250 19 -71 19 -209 0 -280 -50 -189
-206 -345 -395 -395 -71 -19 -209 -19 -280 0 -189 50 -345 206 -395 395 -19
71 -19 209 0 280 50 187 205 344 391 395 66 18 216 18 284 0z"/>
<path d="M2390 2780 c-13 -13 -20 -33 -20 -60 0 -53 27 -80 80 -80 53 0 80 27
80 80 0 27 -7 47 -20 60 -13 13 -33 20 -60 20 -27 0 -47 -7 -60 -20z"/>
<path d="M2790 2780 c-13 -13 -20 -33 -20 -60 0 -27 7 -47 20 -60 13 -13 33
-20 60 -20 27 0 47 7 60 20 13 13 20 33 20 60 0 27 -7 47 -20 60 -13 13 -33
20 -60 20 -27 0 -47 -7 -60 -20z"/>
<path d="M2334 2505 c-12 -29 2 -121 25 -167 28 -60 89 -120 149 -150 68 -33
216 -33 284 0 106 52 173 153 173 262 l0 65 -313 3 c-275 2 -313 0 -318 -13z
m540 -87 c-20 -66 -74 -127 -136 -152 -21 -9 -60 -16 -88 -16 -103 0 -193 67
-224 168 l-7 22 231 0 231 0 -7 -22z"/>
<path d="M4492 3145 c-30 -7 -92 -32 -140 -55 -123 -61 -214 -154 -275 -281
-54 -111 -67 -169 -67 -289 0 -120 13 -178 67 -289 63 -131 153 -221 284 -284
111 -54 169 -67 289 -67 120 0 178 13 289 67 131 63 221 153 284 284 54 111
67 169 67 289 0 120 -13 178 -67 289 -63 131 -153 221 -284 284 -52 25 -118
50 -147 56 -70 15 -234 13 -300 -4z m298 -90 c189 -50 345 -206 395 -395 8
-30 15 -93 15 -140 0 -155 -52 -281 -160 -390 -109 -108 -235 -160 -390 -160
-155 0 -281 52 -390 160 -108 109 -160 235 -160 390 0 47 7 110 15 140 50 187
205 344 391 395 66 18 216 18 284 0z"/>
<path d="M4365 2800 l-29 -30 44 -45 44 -45 -47 0 -47 0 0 -40 0 -41 118 3
117 3 3 29 c3 25 -8 41 -79 112 -46 46 -86 84 -89 84 -4 0 -19 -14 -35 -30z"/>
<path d="M4811 2746 c-71 -71 -82 -87 -79 -112 l3 -29 118 -3 117 -3 0 41 0
40 -47 0 -47 0 44 45 44 45 -29 30 c-16 16 -31 30 -35 30 -3 0 -43 -38 -89
-84z"/>
<path d="M4537 2505 c-113 -43 -207 -166 -207 -271 0 -34 1 -34 45 -34 42 0
45 2 45 28 1 37 31 101 66 136 113 113 308 77 375 -69 10 -22 19 -52 19 -67 0
-27 3 -28 46 -28 l47 0 -5 49 c-9 97 -81 196 -176 243 -59 29 -195 36 -255 13z"/>
<path d="M492 1265 c-30 -7 -92 -32 -140 -55 -123 -61 -214 -154 -275 -281
-54 -111 -67 -169 -67 -289 0 -120 13 -178 67 -289 63 -131 153 -221 284 -284
111 -54 169 -67 289 -67 120 0 178 13 289 67 75 36 108 59 166 118 59 58 82
91 118 166 54 111 67 169 67 289 0 120 -13 178 -67 289 -63 131 -153 221 -284
284 -52 25 -118 50 -147 56 -70 15 -234 13 -300 -4z m298 -90 c189 -50 345
-206 395 -395 19 -71 19 -209 0 -280 -50 -189 -206 -345 -395 -395 -71 -19
-209 -19 -280 0 -189 50 -345 206 -395 395 -19 71 -19 209 0 280 50 187 205
344 391 395 66 18 216 18 284 0z"/>
<path d="M362 900 c-39 -24 -72 -75 -72 -112 0 -26 3 -28 43 -28 38 0 44 3 54
30 20 53 106 53 126 0 10 -27 16 -30 54 -30 40 0 43 2 43 28 0 37 -33 88 -72
112 -45 27 -131 27 -176 0z"/>
<path d="M762 900 c-39 -24 -72 -75 -72 -112 0 -26 3 -28 43 -28 38 0 44 3 54
30 20 53 106 53 126 0 10 -27 16 -30 54 -30 40 0 43 2 43 28 0 37 -33 88 -72
112 -45 27 -131 27 -176 0z"/>
<path d="M332 551 c9 -97 81 -196 176 -243 68 -33 216 -33 284 0 95 47 167
146 176 243 l5 49 -47 0 c-43 0 -46 -1 -46 -27 -1 -38 -31 -102 -66 -137 -88
-88 -240 -88 -328 0 -35 35 -65 99 -66 137 0 26 -3 27 -46 27 l-47 0 5 -49z"/>
<path d="M2492 1265 c-30 -7 -92 -32 -140 -55 -123 -61 -214 -154 -275 -281
-54 -111 -67 -169 -67 -289 0 -120 13 -178 67 -289 63 -131 153 -221 284 -284
111 -54 169 -67 289 -67 120 0 178 13 289 67 131 63 221 153 284 284 54 111
67 169 67 289 0 120 -13 178 -67 289 -63 131 -153 221 -284 284 -52 25 -118
50 -147 56 -70 15 -234 13 -300 -4z m298 -90 c189 -50 345 -206 395 -395 19
-71 19 -209 0 -280 -50 -189 -206 -345 -395 -395 -71 -19 -209 -19 -280 0
-189 50 -345 206 -395 395 -19 71 -19 209 0 280 50 187 205 344 391 395 66 18
216 18 284 0z"/>
<path d="M2390 900 c-13 -13 -20 -33 -20 -60 0 -53 27 -80 80 -80 27 0 47 7
60 20 13 13 20 33 20 60 0 53 -27 80 -80 80 -27 0 -47 -7 -60 -20z"/>
<path d="M2790 900 c-13 -13 -20 -33 -20 -60 0 -53 27 -80 80 -80 53 0 80 27
80 80 0 53 -27 80 -80 80 -27 0 -47 -7 -60 -20z"/>
<path d="M2706 585 c-88 -31 -162 -122 -173 -213 l-6 -52 47 0 c43 0 46 2 46
25 0 28 23 79 49 109 22 25 85 56 116 56 23 0 25 3 25 45 0 44 -1 45 -32 45
-18 -1 -50 -7 -72 -15z"/>
<path d="M4492 1265 c-30 -7 -92 -32 -140 -55 -123 -61 -214 -154 -275 -281
-54 -111 -67 -169 -67 -289 0 -120 13 -178 67 -289 63 -131 153 -221 284 -284
111 -54 169 -67 289 -67 120 0 178 13 289 67 131 63 221 153 284 284 54 111
67 169 67 289 0 120 -13 178 -67 289 -63 131 -153 221 -284 284 -52 25 -118
50 -147 56 -70 15 -234 13 -300 -4z m298 -90 c189 -50 345 -206 395 -395 8
-30 15 -93 15 -140 0 -155 -52 -281 -160 -390 -109 -108 -235 -160 -390 -160
-155 0 -281 52 -390 160 -108 109 -160 235 -160 390 0 47 7 110 15 140 50 187
205 344 391 395 66 18 216 18 284 0z"/>
<path d="M4217 913 c-4 -3 -7 -51 -7 -106 l0 -99 34 -34 34 -34 132 0 132 0
34 34 c32 32 34 38 34 100 l0 66 40 0 40 0 0 -66 c0 -62 2 -68 34 -100 l34
-34 132 0 132 0 34 34 35 35 -3 103 -3 103 -431 3 c-237 1 -434 -1 -437 -5z"/>
<path d="M4332 511 c9 -97 81 -196 176 -243 68 -33 216 -33 284 0 95 47 167
146 176 243 l5 49 -47 0 c-43 0 -46 -1 -46 -27 -1 -38 -31 -102 -66 -137 -88
-88 -240 -88 -328 0 -35 35 -65 99 -66 137 0 26 -3 27 -46 27 l-47 0 5 -49z"/>
</g>
</svg>
