<?xml version="1.0" standalone="no"?>
<!DOCTYPE svg PUBLIC "-//W3C//DTD SVG 20010904//EN"
 "http://www.w3.org/TR/2001/REC-SVG-20010904/DTD/svg10.dtd">
<svg version="1.0" xmlns="http://www.w3.org/2000/svg"
 width="512.000000pt" height="512.000000pt" viewBox="0 0 512.000000 512.000000"
 preserveAspectRatio="xMidYMid meet">
<metadata>
Created by potrace 1.16, written by Peter Selinger 2001-2019
</metadata>
<g transform="translate(0.000000,512.000000) scale(0.100000,-0.100000)"
fill="#000000" stroke="none">
<path d="M2320 4981 l0 -139 -62 -7 c-109 -12 -270 -46 -368 -77 -335 -107
-614 -330 -750 -598 -143 -284 -142 -698 5 -990 81 -163 240 -342 396 -447
170 -115 386 -211 625 -278 71 -20 135 -38 142 -41 9 -3 12 -130 12 -594 0
-324 -2 -590 -5 -590 -12 0 -93 45 -145 80 -170 115 -293 280 -360 483 l-22
68 -41 -6 c-23 -3 -222 -21 -442 -41 -219 -19 -401 -37 -403 -39 -9 -9 23
-146 60 -258 145 -442 445 -739 903 -895 106 -36 292 -78 388 -87 l67 -7 0
-259 0 -259 250 0 250 0 0 264 0 264 28 6 c15 3 59 10 97 16 581 89 1039 416
1205 862 53 145 65 222 64 438 0 191 -2 212 -27 304 -69 249 -210 443 -422
582 -215 140 -439 225 -907 345 l-38 10 0 550 0 550 23 -7 c73 -22 192 -107
247 -176 50 -63 76 -111 106 -198 21 -64 23 -65 55 -63 58 4 793 83 816 88 24
6 23 13 -24 160 -151 472 -557 763 -1170 840 l-53 7 0 139 0 139 -250 0 -250
0 0 -139z m0 -1271 l0 -490 -50 20 c-133 52 -281 173 -329 269 -89 173 -58
364 82 517 67 73 228 171 285 174 9 0 12 -104 12 -490z m606 -1465 c300 -97
453 -270 454 -511 0 -175 -98 -339 -269 -449 -69 -45 -177 -88 -248 -100 l-43
-7 0 546 c0 456 2 546 14 546 7 0 49 -11 92 -25z"/>
</g>
</svg>
